<svg width="226" height="61" viewBox="0 0 226 61" fill="none" xmlns="http://www.w3.org/2000/svg">
<g clip-path="url(#clip0_147_126)">
<path d="M58.688 5.71509H29.4635L25.4143 11.9497L46.5405 24.7654L58.688 5.71509Z" fill="#00B5DE"/>
<path d="M25.4143 11.9498L5.87256 0V28.7487L12.7386 32.5588L46.5404 24.7654L25.4143 11.9498Z" fill="#00DECC"/>
<path d="M52.8783 30.6538L46.5405 26.8438L33.5127 47.4527L52.8783 59.4025V30.6538Z" fill="#FF5529"/>
<path d="M46.5405 26.8438L12.5626 34.8103L0.415039 53.5142H29.6396L33.5127 47.4527L46.5405 26.8438Z" fill="#FF9640"/>
<path d="M136.855 15.2402C146.538 15.2402 153.756 21.8213 153.756 31.0001C153.756 40.1789 146.538 46.7599 136.855 46.7599C127.172 46.7599 119.954 40.0057 119.954 31.0001C119.954 21.9944 127.172 15.2402 136.855 15.2402ZM84.0395 15.7598L95.4828 34.6369L106.926 15.7598H112.736L112.912 46.0671H106.046V28.0559L96.8912 43.123H93.7223L84.7437 28.5755V46.4135H78.0537V15.7598H84.0395ZM203.05 15.933L210.092 25.8045L217.134 15.933H224.881L214.141 30.6537L225.585 46.4135H217.486V46.2403L210.092 35.676L202.698 46.2403H194.424L205.867 30.8269L194.952 15.933H203.05ZM175.058 15.7598C185.093 15.7598 192.135 21.8213 192.135 31.0001C192.135 40.1789 185.269 46.2403 175.058 46.2403H160.974V15.7598H175.058ZM136.855 21.3017C131.397 21.3017 127.172 25.285 127.172 31.0001C127.172 36.7152 131.397 40.6984 136.855 40.6984C142.312 40.6984 146.538 36.7152 146.538 31.0001C146.538 25.285 142.312 21.3017 136.855 21.3017ZM174.706 21.6481H168.192V40.5252H174.706V40.352C180.868 40.352 184.917 36.7152 184.917 31.0001C184.917 25.1118 180.868 21.6481 174.706 21.6481Z" fill="#ECF0F1"/>
</g>
<defs>
<clipPath id="clip0_147_126">
<rect width="225.17" height="61" fill="white" transform="translate(0.415039)"/>
</clipPath>
</defs>
</svg>
