<svg width="240" height="65" viewBox="0 0 240 65" fill="none" xmlns="http://www.w3.org/2000/svg">
<path d="M29 26.0736C25.6975 11.4399 18.8143 7.54428 17.0584 4.79045C16.3343 3.57732 15.6929 2.31632 15.1386 1.01611C15.0458 2.31611 14.8754 3.13511 13.7753 4.12095C11.5664 6.09911 2.18525 13.7778 1.39576 30.4048C0.660191 45.9073 12.7421 55.4666 14.3383 56.4546C15.5657 57.0613 17.0605 56.4676 17.7896 55.9108C23.6138 51.8959 31.5713 41.1926 29.0065 26.0736" fill="#10AA50"/>
<path d="M15.639 48.1997C15.3348 52.0369 15.117 54.2664 14.3447 56.459C14.3447 56.459 14.8516 60.112 15.2076 63.9817H16.4673C16.7678 61.2567 17.2266 58.5517 17.8414 55.8805C16.2106 55.0745 15.7015 51.5667 15.639 48.1997Z" fill="#B8C4C2"/>
<path d="M17.8392 55.8826C16.1912 55.1178 15.7145 51.5363 15.6411 48.1996C16.0487 42.6955 16.1675 37.1737 15.997 31.6571C15.9108 28.7625 16.038 4.84679 15.2874 1.34546C15.8009 2.53132 16.3925 3.68149 17.0583 4.78829C18.8142 7.54429 25.6996 11.44 29 26.0736C31.5712 41.1666 23.6569 51.8418 17.8392 55.8826Z" fill="#12924F"/>
<path d="M235.058 50.5916C234.352 50.5915 233.662 50.3819 233.075 49.9891C232.488 49.5963 232.029 49.0378 231.757 48.3839C231.485 47.73 231.411 47.0098 231.545 46.314C231.679 45.6181 232.015 44.9776 232.511 44.4729C233.006 43.9683 233.639 43.6221 234.33 43.4778C235.021 43.3336 235.739 43.3977 236.393 43.6621C237.048 43.9265 237.61 44.3795 238.01 44.964C238.409 45.5485 238.627 46.2385 238.637 46.9473C238.649 47.4251 238.566 47.9007 238.391 48.3454C238.217 48.7901 237.954 49.1947 237.62 49.5351C237.286 49.8754 236.887 50.1445 236.446 50.326C236.006 50.5076 235.534 50.5979 235.058 50.5916ZM235.058 43.7276C234.413 43.7233 233.782 43.9113 233.243 44.2678C232.705 44.6243 232.284 45.1332 232.034 45.7302C231.784 46.3271 231.716 46.9851 231.839 47.621C231.961 48.2568 232.269 48.8418 232.723 49.3018C233.176 49.7619 233.756 50.0763 234.388 50.2053C235.02 50.3343 235.675 50.272 236.272 50.0264C236.868 49.7807 237.379 49.3628 237.739 48.8254C238.099 48.2881 238.292 47.6555 238.294 47.0079C238.302 46.5774 238.224 46.1495 238.065 45.7497C237.906 45.3499 237.668 44.9863 237.367 44.6804C237.065 44.3745 236.705 44.1325 236.308 43.9689C235.912 43.8052 235.487 43.7232 235.058 43.7276ZM235.921 49.2699L234.998 47.2701H234.253V49.2699H233.712V44.7199H235.047C236.042 44.7199 236.456 45.1533 236.456 45.9918C236.456 46.6591 236.143 47.0751 235.561 47.2029L236.514 49.2634L235.921 49.2699ZM234.275 46.7999H235.058C235.692 46.7999 235.934 46.5833 235.934 46.0026C235.934 45.4219 235.703 45.2248 234.989 45.2248H234.275V46.7999Z" fill="#D9D9D9"/>
<path d="M181.797 47.3157C182.766 48.0935 184.701 48.4142 186.407 48.4142C188.618 48.4142 190.786 48.0025 192.904 46.0807C195.061 44.1112 196.545 41.0973 196.545 36.2852C196.545 31.6615 194.794 27.9088 191.2 25.7118C189.172 24.4313 186.545 23.9265 183.549 23.9265C182.686 23.9265 181.797 23.972 181.293 24.2017C181.086 24.3657 180.939 24.5945 180.876 24.8517C180.786 25.675 180.786 31.9453 180.786 35.6525C180.786 39.4528 180.786 44.7525 180.876 45.4025C180.924 45.9528 181.2 46.9192 181.797 47.3243M172.599 21.8682C173.383 21.8682 176.359 22.0047 177.744 22.0047C180.333 22.0047 182.121 21.8682 186.959 21.8682C191.015 21.8682 194.427 22.9667 196.867 25.0705C199.818 27.6358 201.397 31.2043 201.397 35.5528C201.397 41.7322 198.592 45.3028 195.773 47.3157C192.969 49.4217 189.321 50.6112 184.125 50.6112C181.359 50.6112 176.612 50.5202 172.649 50.4747H172.567C172.382 50.1085 172.906 48.6807 173.229 48.6438C174.308 48.5225 174.593 48.4792 175.089 48.2733C175.926 47.9288 176.122 47.4998 176.215 45.9897C176.353 43.1513 176.308 39.7648 176.308 35.919C176.308 33.1738 176.353 27.8178 176.262 26.1235C176.122 24.7065 175.527 24.3403 174.321 24.0652C173.466 23.8827 172.602 23.7453 171.732 23.6535C171.642 23.3783 172.349 22.1368 172.58 21.8682" fill="#D9D9D9"/>
<path d="M212.818 24.1907C212.635 24.2362 212.404 24.6956 212.404 24.9231C212.357 26.5719 212.312 30.8727 212.312 33.8476C212.323 33.9044 212.351 33.9566 212.392 33.9974C212.433 34.0383 212.486 34.0661 212.542 34.0772C213.14 34.1227 214.615 34.1704 215.86 34.1704C217.611 34.1704 218.625 33.9407 219.178 33.6656C220.653 32.9332 221.335 31.3299 221.335 29.5922C221.335 25.6099 218.569 24.0997 214.469 24.0997C213.914 24.0927 213.36 24.1231 212.81 24.1907M223.272 42.4991C223.272 38.4712 220.321 36.1832 214.928 36.1832C214.699 36.1832 212.987 36.1377 212.579 36.2287C212.441 36.2742 212.303 36.3652 212.303 36.4584C212.303 39.3422 212.255 43.9637 212.396 45.7946C212.488 46.5724 213.043 47.6709 213.731 47.9916C214.469 48.4032 216.127 48.4942 217.279 48.4942C220.459 48.4942 223.272 46.7111 223.272 42.4991ZM204.492 21.9482C204.908 21.9482 206.134 22.0847 209.268 22.0847C212.217 22.0847 214.613 21.9937 217.465 21.9937C221.013 21.9937 225.897 23.2764 225.897 28.5847C225.897 31.1847 224.055 33.2994 221.658 34.3069C221.52 34.3524 221.52 34.4434 221.658 34.4889C225.069 35.3556 228.063 37.4637 228.063 41.4916C228.063 45.4284 225.621 47.9006 222.072 49.4562C219.915 50.4182 217.234 50.7367 214.523 50.7367C212.45 50.7367 206.893 50.5201 203.804 50.5547C203.48 50.4182 204.099 48.9514 204.376 48.7239C205.083 48.7021 205.785 48.5914 206.466 48.3946C207.57 48.1216 207.702 47.7641 207.84 46.1152C207.933 44.6961 207.933 39.6152 207.933 35.9991C207.933 31.0547 207.98 27.7159 207.933 26.0671C207.887 24.7866 207.426 24.3727 206.55 24.1452C205.86 24.0066 204.708 23.8701 203.787 23.7336C203.556 23.5039 204.266 22.1302 204.494 21.9482" fill="#D9D9D9"/>
<path d="M39.205 50.5916C39.0863 50.2986 39.0383 49.9816 39.0648 49.6664C39.0545 49.4516 39.1029 49.238 39.205 49.0489C39.801 48.9626 40.3916 48.8418 40.9738 48.6871C41.7892 48.4834 42.0955 48.0371 42.143 46.9928C42.2767 44.5249 42.2853 39.8948 42.2379 36.6404V36.5451C42.2379 36.1941 42.2379 35.7174 41.8065 35.3816C41.0482 34.9038 40.225 34.5389 39.3625 34.2983C38.9763 34.1834 38.7628 33.9798 38.7736 33.7414C38.7844 33.5031 39.0281 33.2214 39.5307 33.1218C40.866 32.9853 44.3648 32.1468 45.7388 31.5098C45.8803 31.695 45.9459 31.9275 45.9222 32.1598C45.9222 32.3028 45.9006 32.4544 45.8855 32.6104C45.8467 33.0698 45.8035 33.5919 45.8035 34.1119C45.812 34.1751 45.8378 34.2346 45.8781 34.2839C45.9185 34.3331 45.9717 34.37 46.0317 34.3905C46.0918 34.411 46.1564 34.4142 46.2182 34.3999C46.28 34.3855 46.3366 34.354 46.3816 34.3091C48.9982 32.2486 51.3429 31.5141 52.5444 31.5141C54.5225 31.5141 56.0627 32.4631 57.2555 34.4174C57.2829 34.4646 57.3218 34.5039 57.3687 34.5316C57.4155 34.5593 57.4687 34.5745 57.523 34.5756C57.5724 34.5751 57.621 34.5627 57.6645 34.5393C57.7081 34.5159 57.7454 34.4823 57.7732 34.4413C60.1784 32.6083 62.562 31.5141 64.1582 31.5141C67.9288 31.5141 70.183 34.3503 70.183 39.0974C70.183 40.4624 70.17 42.1936 70.1571 43.8078C70.1463 45.2248 70.1355 46.5529 70.1355 47.4716C70.1355 47.6883 70.4332 48.3123 70.8797 48.4358C71.4319 48.7066 72.2279 48.8453 73.2353 49.0186H73.2741C73.3496 49.2916 73.19 50.3511 73.0368 50.5678C72.7866 50.5678 72.4414 50.5461 72.01 50.5244C71.227 50.4854 70.1528 50.4313 68.9038 50.4313C66.3973 50.4313 65.0879 50.4789 63.8368 50.5613C63.7419 50.2471 63.7095 49.2331 63.8239 49.0208C64.342 48.9394 64.8548 48.8272 65.3597 48.6849C66.1578 48.4206 66.3886 48.0566 66.4383 46.9928C66.4577 46.2366 66.6022 39.5741 66.3455 37.9924C66.1082 36.3523 64.8787 34.4326 62.1888 34.4326C61.1901 34.4326 59.5787 34.8508 58.0429 36.0208C57.9476 36.1292 57.8941 36.2683 57.8919 36.4129V36.4454C58.0731 37.2991 58.0731 38.2958 58.0731 39.8016C58.0731 40.6683 58.0731 41.5718 58.0623 42.4753C58.0515 44.3126 58.0429 46.0459 58.0731 47.3568C58.0731 48.2494 58.6102 48.4639 59.0438 48.6351C59.2789 48.6871 59.4644 48.7326 59.6521 48.7759C60.0123 48.8648 60.3876 48.9558 60.9463 49.0446C61.029 49.4252 61.0216 49.82 60.9247 50.1973C60.9019 50.3388 60.8465 50.4731 60.763 50.5894C59.3695 50.5418 57.9393 50.5006 55.875 50.5006C55.2494 50.5006 54.2291 50.5266 53.3275 50.5504C52.5962 50.5699 51.9059 50.5894 51.5134 50.5916C51.4072 50.3399 51.3599 50.0672 51.3753 49.7943C51.3533 49.5371 51.4033 49.279 51.5198 49.0489L52.0742 48.9471C52.5574 48.8604 52.9759 48.7868 53.3685 48.6871C54.0501 48.4704 54.3068 48.0978 54.3564 47.2246C54.4901 45.1879 54.5937 39.3184 54.3068 37.8494C53.8193 35.4921 52.484 34.2961 50.3356 34.2961C49.078 34.2961 47.4882 34.9049 46.1897 35.8821C46.0648 36.0043 45.9664 36.1511 45.9006 36.3133C45.8349 36.4755 45.8033 36.6495 45.8079 36.8246C45.8079 37.5244 45.8079 38.3564 45.8079 39.2491C45.8079 42.1958 45.7884 45.8639 45.8596 47.4499C45.9028 47.9396 46.0753 48.5203 46.9878 48.7326C47.1884 48.7911 47.5335 48.8474 47.9347 48.9146C48.1656 48.9536 48.4179 48.9948 48.6789 49.0424C48.7619 49.5613 48.7198 50.0925 48.556 50.5916C48.1548 50.5916 47.6608 50.5656 47.0956 50.5418C46.2328 50.5028 45.1543 50.4551 43.9355 50.4551C42.4946 50.4551 41.4915 50.5028 40.6869 50.5418C40.1455 50.5678 39.6774 50.5894 39.2093 50.5916" fill="#D9D9D9"/>
<path d="M85.464 33.4728C84.6855 33.4565 83.9197 33.673 83.2638 34.0946C81.6632 35.0718 80.8478 37.0239 80.8478 39.8926C80.8478 45.2616 83.5248 49.0121 87.3579 49.0121C88.3857 49.0448 89.3882 48.6883 90.1665 48.0133C91.3442 47.0491 91.9698 45.0774 91.9698 42.3171C91.9698 37.0283 89.3532 33.4728 85.4597 33.4728M86.1974 51.0033C79.2732 51.0033 76.8076 45.9008 76.8076 41.1276C76.8076 37.7931 78.1644 35.1866 80.8414 33.3774C82.7163 32.2115 84.8685 31.5725 87.0732 31.5271C92.3559 31.5271 96.0467 35.3426 96.0467 40.8091C96.0467 44.5228 94.5734 47.4564 91.7843 49.2894C90.4447 50.1128 88.1172 51.0033 86.1974 51.0033Z" fill="#D9D9D9"/>
<path d="M155.958 33.4728C155.177 33.455 154.41 33.6715 153.753 34.0946C152.152 35.0718 151.337 37.0239 151.337 39.8926C151.337 45.2616 154.014 49.0121 157.847 49.0121C158.878 49.047 159.884 48.6904 160.664 48.0133C161.842 47.0491 162.465 45.0774 162.465 42.3171C162.465 37.0283 159.851 33.4728 155.958 33.4728ZM156.695 51.0033C149.771 51.0033 147.305 45.9008 147.305 41.1298C147.305 37.7909 148.662 35.1866 151.341 33.3774C153.215 32.2108 155.367 31.5717 157.571 31.5271C162.854 31.5271 166.545 35.3448 166.545 40.8069C166.545 44.5249 165.071 47.4564 162.282 49.2873C160.943 50.1128 158.615 51.0033 156.695 51.0033Z" fill="#D9D9D9"/>
<path d="M132.644 33.2908C130.51 33.2908 129.13 34.9829 129.13 37.6024C129.13 40.2219 130.318 43.3354 133.66 43.3354C134.234 43.3354 135.273 43.0798 135.789 42.5099C136.565 41.7928 137.083 40.3108 137.083 38.7464C137.083 35.3296 135.426 33.2908 132.655 33.2908M132.378 51.3694C131.776 51.3628 131.181 51.5121 130.653 51.8028C128.964 52.8861 128.181 53.9694 128.181 55.2283C128.181 56.4069 128.636 57.3451 129.615 58.1771C130.802 59.1868 132.402 59.6786 134.505 59.6786C138.645 59.6786 140.5 57.4426 140.5 55.2283C140.5 53.6856 139.73 52.6521 138.144 52.0671C136.923 51.6186 134.883 51.3716 132.385 51.3716M132.661 61.9883C130.176 61.9883 128.386 61.4618 126.856 60.2788C125.368 59.1261 124.699 57.4144 124.699 56.2314C124.715 55.4691 125.005 54.7382 125.515 54.1731C125.946 53.6791 126.949 52.7539 129.268 51.1528C129.304 51.1374 129.335 51.1118 129.356 51.079C129.377 51.0462 129.389 51.0078 129.389 50.9686C129.389 50.9248 129.375 50.8821 129.349 50.8474C129.322 50.8128 129.284 50.7883 129.242 50.7779C127.333 50.0434 126.757 48.8279 126.582 48.1779C126.582 48.1541 126.582 48.1173 126.563 48.0761C126.509 47.8204 126.457 47.5778 126.805 47.3286C127.072 47.1379 127.499 46.8823 127.956 46.6114C128.602 46.2525 129.221 45.8478 129.809 45.4003C129.841 45.3661 129.864 45.3252 129.878 45.2806C129.891 45.2359 129.894 45.1888 129.887 45.1428C129.879 45.0968 129.861 45.0531 129.835 45.0151C129.808 44.9771 129.773 44.9458 129.732 44.9236C126.906 43.9703 125.482 41.8621 125.482 38.6403C125.474 37.6356 125.706 36.6437 126.161 35.7486C126.615 34.8535 127.278 34.0818 128.092 33.4988C129.229 32.5953 132.083 31.5098 133.932 31.5098H134.039C135.94 31.5553 137.012 31.9561 138.496 32.5064C139.34 32.813 140.235 32.9557 141.132 32.9268C142.704 32.9268 143.393 32.4263 143.984 31.8434C144.079 32.106 144.13 32.3828 144.135 32.6624C144.171 33.3286 143.991 33.9886 143.621 34.5431C143.3 34.9916 142.543 35.3166 141.85 35.3166C141.779 35.3166 141.71 35.3166 141.635 35.3058C141.27 35.28 140.909 35.2198 140.556 35.1259L140.379 35.1888C140.323 35.2711 140.36 35.3621 140.405 35.4791C140.416 35.502 140.425 35.5259 140.431 35.5506C140.557 36.1289 140.643 36.7153 140.688 37.3056C140.688 40.6748 139.365 42.1416 137.935 43.2293C136.552 44.2714 134.91 44.9101 133.19 45.0753C133.153 45.0753 132.974 45.0904 132.637 45.1208C132.422 45.1403 132.141 45.1663 132.1 45.1663H132.059C131.749 45.2529 130.938 45.6408 130.938 46.3623C130.938 46.9603 131.304 47.7034 133.058 47.8378L134.193 47.9179C136.505 48.0804 139.393 48.2819 140.752 48.7434C141.654 49.0618 142.432 49.6577 142.977 50.4461C143.522 51.2346 143.806 52.1756 143.787 53.1353C143.787 56.1578 141.647 59.0004 138.065 60.7381C136.375 61.5487 134.525 61.9657 132.652 61.9579" fill="#D9D9D9"/>
<path d="M122.061 48.9797C121.047 48.8432 120.307 48.7045 119.434 48.2928C119.262 48.1145 119.149 47.8876 119.11 47.6428C119.017 46.2237 119.017 42.1048 119.017 39.4095C119.017 37.2103 118.651 35.2928 117.723 33.917C116.617 32.3592 115.05 31.4448 113.023 31.4448C111.226 31.4448 108.829 32.6798 106.849 34.3742C106.802 34.4197 106.498 34.71 106.504 34.2593C106.511 33.8087 106.58 32.8943 106.623 32.3093C106.642 32.1539 106.625 31.9961 106.572 31.8486C106.52 31.7012 106.434 31.5681 106.321 31.46C105.026 32.11 101.396 32.9767 100.052 33.1088C99.0729 33.2995 98.8248 34.2463 99.871 34.5735H99.8861C100.724 34.8054 101.523 35.1587 102.259 35.6222C102.673 35.9428 102.628 36.4 102.628 36.7662C102.673 39.832 102.673 44.5467 102.535 47.1098C102.49 48.1173 102.211 48.4835 101.474 48.6677L101.543 48.6438C100.981 48.7852 100.411 48.8923 99.8365 48.9645C99.6057 49.192 99.6057 50.5202 99.8365 50.7953C100.298 50.7953 102.641 50.6588 104.582 50.6588C107.253 50.6588 108.635 50.7953 109.328 50.7953C109.606 50.4747 109.697 49.2397 109.513 48.9645C108.875 48.9355 108.241 48.8433 107.621 48.6893C106.886 48.5073 106.7 48.139 106.655 47.3178C106.564 45.1642 106.564 40.5882 106.564 37.4747C106.564 36.608 106.793 36.1942 107.069 35.958C107.99 35.1347 109.513 34.5865 110.848 34.5865C112.143 34.5865 113.006 34.9982 113.653 35.5463C114.406 36.2069 114.879 37.133 114.973 38.1333C115.156 39.8667 115.109 43.3528 115.109 46.3667C115.109 48.0155 114.973 48.4293 114.373 48.6113C114.097 48.7478 113.359 48.8865 112.484 48.9775C112.207 49.2527 112.298 50.5332 112.484 50.8083C113.681 50.8083 115.072 50.6718 117.091 50.6718C119.626 50.6718 121.239 50.8083 121.884 50.8083C122.16 50.4877 122.253 49.2917 122.07 48.9775" fill="#D9D9D9"/>
</svg>
