<svg width="165" height="101" viewBox="0 0 165 101" fill="none" xmlns="http://www.w3.org/2000/svg">
<g clip-path="url(#clip0_147_235)">
<path d="M81.5533 101C81.0087 101 80.4679 100.858 79.9904 100.583L75.0159 97.6394C74.2729 97.2241 74.6354 97.0772 74.8805 96.9926C75.8711 96.6459 76.0722 96.5676 77.1296 95.9674C77.2408 95.904 77.3862 95.9264 77.5 95.9935L81.3216 98.2601C81.4597 98.3346 81.6555 98.3346 81.7834 98.2601L96.6844 89.6635C96.8224 89.5852 96.9119 89.4249 96.9119 89.2609V72.0752C96.9119 71.9037 96.8224 71.7509 96.6814 71.6651L81.7864 63.076C81.6484 62.994 81.4656 62.994 81.3276 63.076L66.4356 71.6651C66.2913 71.7471 66.1995 71.9074 66.1995 72.0715V89.2571C66.1995 89.4212 66.289 89.5777 66.4308 89.656L70.5113 92.0121C72.7268 93.1193 74.0808 91.8145 74.0808 90.5023V73.5403C74.0808 73.2979 74.271 73.1115 74.5135 73.1115H76.4008C76.6358 73.1115 76.8297 73.2979 76.8297 73.5403V90.5097C76.8297 93.4622 75.2184 95.1584 72.4173 95.1584C71.5557 95.1584 70.8768 95.1584 68.982 94.2265L65.0731 91.9748C64.107 91.4156 63.5103 90.3718 63.5103 89.2571V72.0715C63.5103 70.9531 64.107 69.9093 65.0731 69.3575L79.989 60.7572C80.9326 60.2241 82.1859 60.2241 83.1221 60.7572L98.0193 69.3613C98.9816 69.9167 99.5821 70.9568 99.5821 72.0752V89.2609C99.5821 90.3755 98.9816 91.4156 98.0193 91.9748L83.1221 100.575C82.6446 100.851 82.1038 100.993 81.5518 100.993" fill="#689F63"/>
<path d="M86.1559 89.1582C79.6361 89.1582 78.269 86.1669 78.269 83.658C78.269 83.4194 78.4615 83.2293 78.7006 83.2293H80.6252C80.8378 83.2293 81.0169 83.384 81.0504 83.5939C81.3414 85.5541 82.2067 86.5427 86.1492 86.5427C89.2898 86.5427 90.6251 85.8336 90.6251 84.1691C90.6251 83.2111 90.2446 82.499 85.3659 82.0219C81.2854 81.6192 78.764 80.7208 78.764 77.4589C78.764 74.4542 81.3003 72.6648 85.5487 72.6648C90.3192 72.6648 92.684 74.32 92.9824 77.8764C92.9936 77.9994 92.9488 78.1187 92.8668 78.2082C92.7847 78.2939 92.6691 78.3461 92.5497 78.3461H90.6139C90.4125 78.3461 90.2372 78.2045 90.1961 78.0106C89.7299 75.9491 88.6035 75.2892 85.5412 75.2892C82.1135 75.2892 81.7144 76.4822 81.7144 77.3769C81.7144 78.4617 82.1843 78.7786 86.8094 79.3899C91.3897 79.9976 93.5642 80.855 93.5642 84.0722C93.5642 87.3155 90.8563 89.1757 86.1343 89.1757M104.284 70.9499H104.784C105.194 70.9499 105.272 70.6629 105.272 70.4951C105.272 70.0552 104.97 70.0553 104.802 70.0553H104.288L104.284 70.9499ZM103.676 69.5408H104.784C105.164 69.5408 105.91 69.5408 105.91 70.3908C105.91 70.9835 105.53 71.1065 105.302 71.1811C105.746 71.2109 105.776 71.5017 105.836 71.9118C105.865 72.169 105.914 72.6126 106.003 72.7617H105.321C105.302 72.6126 105.198 71.7925 105.198 71.7477C105.153 71.5651 105.09 71.4756 104.862 71.4756H104.299V72.7654H103.676V69.5408ZM102.344 71.1438C102.344 72.4784 103.422 73.5595 104.746 73.5595C106.082 73.5595 107.16 72.456 107.16 71.1438C107.16 69.8055 106.067 68.743 104.743 68.743C103.437 68.743 102.341 69.7906 102.341 71.1401M107.622 71.1513C107.622 72.7319 106.328 74.0218 104.75 74.0218C103.184 74.0218 101.878 72.7468 101.878 71.1513C101.878 69.5259 103.213 68.2808 104.75 68.2808C106.298 68.2808 107.619 69.5296 107.619 71.1513" fill="#689F63"/>
<path fill-rule="evenodd" clip-rule="evenodd" d="M35.4104 33.7562C35.4104 33.0702 35.0486 32.4402 34.4563 32.0991L18.6579 23.0142C18.3913 22.8576 18.0925 22.7756 17.7896 22.7644H17.6263C17.3234 22.7756 17.0246 22.8576 16.7535 23.0142L0.955845 32.0991C0.367266 32.4421 0.000244141 33.0721 0.000244141 33.758L0.0349322 58.2281C0.0349322 58.5673 0.210238 58.8842 0.50863 59.0519C0.799562 59.2309 1.16509 59.2309 1.45602 59.0519L10.8479 53.6763C11.441 53.3236 11.8028 52.7003 11.8028 52.0211V40.5894C11.8028 39.9072 12.1646 39.2772 12.7558 38.938L16.7542 36.6364C17.0511 36.4649 17.3771 36.3799 17.7091 36.3799C18.0358 36.3799 18.3693 36.4641 18.6579 36.636L22.6545 38.9369C23.2461 39.2761 23.6094 39.9061 23.6094 40.5883V52.0192C23.6094 52.6977 23.976 53.324 24.5661 53.6744L33.952 59.0463C34.2467 59.2216 34.6133 59.2216 34.9069 59.0463C35.1963 58.8786 35.3798 58.5617 35.3798 58.2225L35.4104 33.7562ZM109.959 46.4967C109.959 46.6671 109.869 46.8248 109.72 46.909L104.294 50.0352C104.147 50.1199 103.965 50.1199 103.818 50.0352L98.3909 46.909C98.2417 46.8244 98.1522 46.6667 98.1522 46.4967V40.2353C98.1522 40.0646 98.2417 39.9072 98.3872 39.8215L103.81 36.69C103.96 36.6043 104.142 36.6043 104.292 36.69L109.719 39.8215C109.868 39.9072 109.957 40.0646 109.957 40.2353L109.959 46.4967ZM111.425 0.120704C111.129 -0.0440701 110.769 -0.0395965 110.476 0.130769C110.185 0.302253 110.005 0.615398 110.005 0.954638V25.1861C110.005 25.4247 109.879 25.6446 109.672 25.7639C109.467 25.8832 109.211 25.8832 109.004 25.7639L105.047 23.4858C104.458 23.145 103.732 23.145 103.14 23.4858L87.3366 32.6016C86.7462 32.9409 86.3817 33.5709 86.3817 34.2494V52.4863C86.3817 53.1685 86.7462 53.7948 87.3366 54.1378L103.14 63.26C103.73 63.5992 104.457 63.5992 105.049 63.26L120.852 54.1341C121.442 53.7911 121.807 53.1648 121.807 52.4826V7.03188C121.807 6.33998 121.43 5.70363 120.826 5.36551L111.425 0.120704ZM164.051 40.0705C164.638 39.7298 165 39.1005 165 38.422V34.0022C165 33.3223 164.638 32.6948 164.05 32.3526L148.347 23.2416C147.754 22.8986 147.027 22.8986 146.434 23.2416L130.634 32.3563C130.041 32.6993 129.679 33.3256 129.679 34.0078V52.2373C129.679 52.9232 130.048 53.557 130.641 53.8962L146.34 62.8395C146.918 63.1713 147.627 63.175 148.213 62.8507L157.709 57.5757C158.007 57.4079 158.198 57.0911 158.198 56.7481C158.198 56.4051 158.015 56.0845 157.716 55.9168L141.82 46.7983C141.521 46.6305 141.338 46.3137 141.338 45.9744V40.2558C141.338 39.9143 141.518 39.5997 141.816 39.4297L146.762 36.5778C147.056 36.4064 147.418 36.4064 147.713 36.5778L152.662 39.4297C152.957 39.5974 153.14 39.9143 153.14 40.2536V44.7494C153.14 45.0887 153.323 45.4055 153.617 45.577C153.912 45.7448 154.277 45.7448 154.572 45.5733L164.051 40.0705Z" fill="#C7C7C7"/>
<path fill-rule="evenodd" clip-rule="evenodd" d="M147.159 39.2177C147.271 39.1517 147.411 39.1517 147.524 39.2177L150.557 40.9661C150.67 41.0317 150.74 41.1525 150.74 41.283V44.7835C150.74 44.914 150.67 45.0347 150.557 45.1004L147.524 46.8487C147.411 46.9147 147.271 46.9147 147.159 46.8487L144.128 45.1004C144.013 45.0347 143.942 44.914 143.942 44.7835V41.283C143.942 41.1525 144.009 41.0317 144.125 40.9661L147.159 39.2177Z" fill="#689F63"/>
<mask id="mask0_147_235" style="mask-type:luminance" maskUnits="userSpaceOnUse" x="43" y="23" width="36" height="41">
<path d="M59.9486 23.3326L44.2345 32.3978C43.646 32.737 43.2849 33.3633 43.2849 34.0403V52.1833C43.2849 52.8607 43.646 53.4866 44.2345 53.8258L59.9497 62.8981C60.5372 63.2362 61.2615 63.2362 61.8483 62.8981L77.5608 53.8258C78.1464 53.4866 78.5082 52.8603 78.5082 52.1833V34.0403C78.5082 33.3633 78.1464 32.737 77.5571 32.3978L61.8468 23.3326C61.5521 23.1637 61.2239 23.0791 60.8956 23.0791C60.5674 23.0791 60.2392 23.1637 59.9445 23.3326" fill="white"/>
</mask>
<g mask="url(#mask0_147_235)">
<path d="M94.388 30.8585L50.1084 9.16577L27.4045 55.4568L71.6829 77.1506L94.388 30.8585Z" fill="url(#paint0_linear_147_235)"/>
</g>
<mask id="mask1_147_235" style="mask-type:luminance" maskUnits="userSpaceOnUse" x="43" y="23" width="35" height="41">
<path d="M43.6743 53.3353C43.8246 53.5302 44.0126 53.6991 44.2338 53.8259L57.7137 61.6079L59.9591 62.8977C60.2948 63.0916 60.6774 63.1736 61.0534 63.1456C61.1787 63.1356 61.3041 63.1121 61.4264 63.0774L77.9998 32.7471C77.873 32.6092 77.7246 32.4936 77.5582 32.3967L67.2689 26.4581L61.83 23.3304C61.6756 23.2409 61.5081 23.1775 61.3376 23.1328L43.6743 53.3353Z" fill="white"/>
</mask>
<g mask="url(#mask1_147_235)">
<path d="M24.5295 37.2747L55.7954 79.569L97.1451 49.0351L65.8773 6.74194L24.5295 37.2747Z" fill="url(#paint1_linear_147_235)"/>
</g>
<mask id="mask2_147_235" style="mask-type:luminance" maskUnits="userSpaceOnUse" x="44" y="23" width="35" height="41">
<path d="M60.7081 23.0896C60.4444 23.1157 60.1867 23.1977 59.9491 23.3327L44.2798 32.3717L61.1762 63.1307C61.4112 63.0972 61.6425 63.0189 61.8513 62.8981L77.5654 53.8259C78.0503 53.5448 78.3823 53.0691 78.483 52.5301L61.2583 23.1205C61.1315 23.0956 61.0047 23.0825 60.8741 23.0825C60.8219 23.0825 60.7697 23.0851 60.7175 23.09" fill="white"/>
</mask>
<g mask="url(#mask2_147_235)">
<path d="M44.2793 23.0825V63.1315H78.4761V23.0825H44.2793Z" fill="url(#paint2_linear_147_235)"/>
</g>
</g>
<defs>
<linearGradient id="paint0_linear_147_235" x1="72.2349" y1="19.978" x2="49.5521" y2="66.2755" gradientUnits="userSpaceOnUse">
<stop offset="0.3" stop-color="#3E863D"/>
<stop offset="0.5" stop-color="#55934F"/>
<stop offset="0.8" stop-color="#5AAD45"/>
</linearGradient>
<linearGradient id="paint1_linear_147_235" x1="40.3499" y1="58.6643" x2="81.6856" y2="28.1058" gradientUnits="userSpaceOnUse">
<stop offset="0.57" stop-color="#3E863D"/>
<stop offset="0.72" stop-color="#619857"/>
<stop offset="1" stop-color="#76AC64"/>
</linearGradient>
<linearGradient id="paint2_linear_147_235" x1="44.2908" y1="43.1081" x2="78.4826" y2="43.1081" gradientUnits="userSpaceOnUse">
<stop offset="0.16" stop-color="#6BBF47"/>
<stop offset="0.38" stop-color="#79B461"/>
<stop offset="0.47" stop-color="#75AC64"/>
<stop offset="0.7" stop-color="#659E5A"/>
<stop offset="0.9" stop-color="#3E863D"/>
</linearGradient>
<clipPath id="clip0_147_235">
<rect width="165" height="101" fill="white"/>
</clipPath>
</defs>
</svg>
