<svg width="231" height="45" viewBox="0 0 231 45" fill="none" xmlns="http://www.w3.org/2000/svg">
<g clip-path="url(#clip0_152_298)">
<path d="M22.9507 23.5588C22.9507 27.0004 21.9253 29.8993 19.8673 32.2461C17.7196 34.7048 14.9289 35.9392 11.5128 35.9392C8.08765 35.9392 5.30604 34.7048 3.1583 32.2461C1.09944 29.8993 0.0664062 27.0004 0.0664062 23.5588C0.0664062 20.1078 1.09944 17.2098 3.1583 14.8715C5.32988 12.4357 8.12064 11.2184 11.5128 11.2184C14.9289 11.2184 17.7196 12.4357 19.8673 14.8715C21.9253 17.2098 22.9507 20.1078 22.9507 23.5588ZM16.1491 23.5588C16.1491 22 15.7752 20.6842 15.0268 19.6204C14.1894 18.4112 13.0175 17.8106 11.5128 17.8106C10.0076 17.8106 8.83618 18.4112 7.99793 19.6204C7.24173 20.6842 6.86751 22 6.86751 23.5588C6.86751 25.109 7.24173 26.4406 7.99793 27.5364C8.83618 28.7456 10.0076 29.3472 11.5128 29.3472C13.0175 29.3472 14.1894 28.7456 15.0268 27.5364C15.7752 26.4406 16.1491 25.109 16.1491 23.5588ZM47.5429 23.5588C47.5429 26.7736 46.6154 29.5825 44.7523 31.9855C42.7592 34.6157 40.1885 35.9392 37.0647 35.9392C34.8597 35.9392 32.9893 35.2979 31.4598 34.0317C31.4598 34.3232 31.4923 35.0298 31.5576 36.1593C31.6226 37.2946 31.6546 38.2203 31.6546 38.9511C31.6546 42.9871 30.4507 45 28.0433 45C27.0585 45 26.2536 44.6507 25.6106 43.9604C24.9762 43.2629 24.6587 42.4251 24.6587 41.4359V15.1884C24.6587 14.2303 24.9843 13.4018 25.635 12.7043C26.2856 12.014 27.0914 11.6658 28.0513 11.6658C29.4988 11.6658 30.5567 12.3867 31.224 13.8248C32.6475 12.0874 34.5919 11.2184 37.0565 11.2184C40.1885 11.2184 42.7511 12.5167 44.7523 15.1236C46.6073 17.5351 47.5429 20.344 47.5429 23.5588ZM40.7413 23.5588C40.7413 22 40.3599 20.6842 39.6114 19.6204C38.7727 18.4112 37.6017 17.8106 36.0965 17.8106C34.5919 17.8106 33.4204 18.4112 32.5822 19.6204C31.8336 20.6842 31.4598 22 31.4598 23.5588C31.4598 25.109 31.8336 26.4406 32.5822 27.5364C33.4204 28.7456 34.5919 29.3472 36.0965 29.3472C37.6017 29.3472 38.7727 28.7456 39.6114 27.5364C40.3599 26.4406 40.7413 25.109 40.7413 23.5588ZM72.2894 22.8289C72.2894 23.9643 72.0207 24.7437 71.4837 25.1829C70.9471 25.6126 70.1093 25.8318 68.9784 25.8318H56.7024C56.7024 27.1309 57.3128 28.129 58.533 28.8265C59.5173 29.3715 60.7213 29.6482 62.1448 29.6482C63.2518 29.6482 64.5775 29.2815 66.1313 28.5601C67.6852 27.8289 68.6853 27.4711 69.1173 27.4711C69.9059 27.4711 70.5728 27.7556 71.1261 28.3401C71.6708 28.917 71.9481 29.6149 71.9481 30.419C71.9481 32.2771 70.5571 33.7239 67.774 34.7625C65.6511 35.5414 63.4953 35.9392 61.2912 35.9392C57.7443 35.9392 54.8806 34.7625 52.6924 32.4166C50.5036 30.0698 49.4061 27.1228 49.4061 23.5588C49.4061 20.1645 50.5446 17.2665 52.8222 14.8481C55.0916 12.4276 57.9153 11.2184 61.2827 11.2184C64.4147 11.2184 67.034 12.3633 69.1335 14.6524C71.2316 16.9425 72.2894 19.6699 72.2894 22.8289ZM65.4888 21.1229C65.4559 20.0834 64.9761 19.142 64.0486 18.2889C63.121 17.437 62.1371 17.0154 61.0955 17.0154C60.0219 17.0154 59.0209 17.437 58.0938 18.2889C57.1667 19.142 56.7024 20.0834 56.7024 21.1229H65.4888ZM95.1405 31.9279C95.1405 32.9193 94.8235 33.7549 94.1897 34.4533C93.5466 35.144 92.7408 35.4932 91.7567 35.4932C89.3813 35.4932 88.1931 33.6095 88.1931 29.8507C88.1931 29.1281 88.2423 27.9918 88.3396 26.4248C88.4456 24.8656 88.4948 23.7212 88.4948 22.9986C88.4948 19.0115 87.2011 17.0154 84.6223 17.0154C82.0431 17.0154 80.758 19.0115 80.758 22.9986C80.758 23.7212 80.7986 24.8656 80.8717 26.4248C80.9533 27.9918 80.9938 29.1281 80.9938 29.8507C80.9938 33.6095 79.8224 35.4932 77.4799 35.4932C76.4951 35.4932 75.6902 35.144 75.0553 34.4533C74.4128 33.7549 74.0954 32.9193 74.0954 31.9279V15.1812C74.0954 14.197 74.4128 13.3623 75.0553 12.6881C75.6902 12.0059 76.5037 11.6658 77.488 11.6658C79.1149 11.6658 80.2453 12.3867 80.8797 13.8248C81.9782 12.0874 83.9221 11.2184 86.7046 11.2184C89.2834 11.2184 91.3337 11.8998 92.8388 13.2556C94.3763 14.71 95.1405 16.7062 95.1405 19.2478V31.9279ZM116.478 31.2065C116.478 32.7406 115.48 33.9579 113.477 34.852C111.892 35.5736 110.168 35.9444 108.426 35.9392C105 35.9392 102.218 34.7048 100.071 32.2461C98.0123 29.8993 96.9792 27.0004 96.9792 23.5588C96.9792 20.1078 98.0289 17.194 100.136 14.8068C102.242 12.4123 105 11.2184 108.426 11.2184C110.402 11.2184 112.102 11.5106 113.519 12.0874C115.494 12.8668 116.478 14.084 116.478 15.7406C116.478 16.5762 116.219 17.3151 115.698 17.9568C115.177 18.5899 114.509 18.9148 113.697 18.9148C113.143 18.9148 112.345 18.7281 111.305 18.3636C110.264 17.9892 109.435 17.8106 108.825 17.8106C107.205 17.8106 105.944 18.387 105.041 19.5394C104.203 20.5789 103.78 21.9104 103.78 23.5588C103.78 25.109 104.154 26.4248 104.912 27.4882C105.748 28.7306 106.929 29.3472 108.433 29.3472C109.101 29.3472 110.011 29.1523 111.175 28.7536C112.339 28.3653 113.177 28.1623 113.697 28.1623C114.454 28.1623 115.103 28.4863 115.658 29.1199C116.203 29.7612 116.478 30.4506 116.478 31.2065ZM141.201 31.9279C141.201 32.9193 140.884 33.7549 140.249 34.4533C139.607 35.144 138.794 35.4932 137.808 35.4932C136.328 35.4932 135.271 34.7701 134.636 33.3332C133.213 35.0712 131.268 35.9392 128.804 35.9392C125.648 35.9392 123.061 34.6157 121.059 31.9855C119.237 29.5825 118.319 26.7736 118.319 23.5588C118.319 20.344 119.237 17.5351 121.059 15.1236C123.093 12.5167 125.671 11.2184 128.804 11.2184C131.268 11.2184 133.213 12.0874 134.636 13.8248C135.271 12.3867 136.328 11.6658 137.808 11.6658C138.769 11.6658 139.575 12.014 140.226 12.7043C140.876 13.4018 141.201 14.2222 141.201 15.1812V31.9279ZM134.4 23.5588C134.4 22 134.027 20.6842 133.278 19.6204C132.407 18.4112 131.236 17.8106 129.764 17.8106C128.258 17.8106 127.088 18.4112 126.249 19.6204C125.493 20.6842 125.12 22 125.12 23.5588C125.12 25.109 125.484 26.4406 126.207 27.5364C127.071 28.7456 128.258 29.3472 129.764 29.3472C131.268 29.3472 132.44 28.7456 133.278 27.5364C134.027 26.4406 134.4 25.109 134.4 23.5588ZM158.554 14.7334C158.554 16.1865 157.846 17.185 156.43 17.7286C155.121 18.1678 153.818 18.6151 152.517 19.0764C151.092 19.889 150.386 21.3988 150.386 23.5912V31.9279C150.386 32.9193 150.059 33.7549 149.426 34.4533C148.782 35.144 147.969 35.4932 146.985 35.4932C145.994 35.4932 145.179 35.144 144.546 34.4533C143.902 33.7549 143.585 32.9193 143.585 31.9279V15.1812C143.585 14.197 143.902 13.3623 144.537 12.6881C145.179 12.0059 145.994 11.6658 146.978 11.6658C148.604 11.6658 149.734 12.3867 150.37 13.8248C151.826 12.0874 153.389 11.2184 155.072 11.2184C156.031 11.2184 156.854 11.5668 157.536 12.257C158.211 12.9554 158.554 13.7834 158.554 14.7334ZM176.296 15.0421C176.296 16.5518 175.702 17.5018 174.524 17.9086C173.945 18.1111 172.732 18.2164 170.885 18.2164V31.9279C170.885 32.9193 170.56 33.7549 169.927 34.4533C169.283 35.144 168.47 35.4932 167.486 35.4932C166.527 35.4932 165.712 35.144 165.06 34.4533C164.411 33.7549 164.086 32.9193 164.086 31.9279V18.2164C162.686 18.2164 161.669 18.0378 161.027 17.6895C160.149 17.2021 159.715 16.317 159.715 15.0421C159.715 13.7681 160.163 12.8992 161.066 12.4357C161.677 12.0946 162.686 11.9169 164.086 11.9169V9.01029C164.086 5.5926 165.215 3.88795 167.486 3.88795C169.747 3.88795 170.885 5.5926 170.885 9.01029V11.9169C172.732 11.9169 173.945 12.0222 174.524 12.2247C175.702 12.6306 176.296 13.5733 176.296 15.0421ZM230.933 10.9197C230.915 8.83573 227.056 7.88981 217.068 7.88981C193.631 7.88981 187.686 6.89078 181.323 0.20874C184 4.22093 185.464 11.7463 210.236 11.3719C236.081 10.9745 220.314 18.0225 215.726 25.9852C224 18.616 230.908 13.7587 230.933 10.9498V10.9197ZM198 32.3185C197.999 34.2556 196.403 35.8492 194.461 35.8496C192.501 35.8496 190.915 34.2675 190.915 32.3185C190.915 32.3176 190.915 32.3167 190.915 32.3158C190.915 30.3755 192.514 28.7788 194.459 28.7788C194.46 28.7788 194.46 28.7788 194.461 28.7788C196.416 28.7788 198 30.3615 198 32.3185ZM214.14 32.3185C214.139 34.2556 212.542 35.8492 210.601 35.8496C208.642 35.8496 207.055 34.2675 207.055 32.3185C207.055 32.3176 207.055 32.3167 207.055 32.3158C207.055 30.3755 208.655 28.7788 210.599 28.7788C210.6 28.7788 210.6 28.7788 210.601 28.7788C212.555 28.7788 214.14 30.3615 214.14 32.3185Z" fill="url(#paint0_linear_152_298)"/>
</g>
<defs>
<linearGradient id="paint0_linear_152_298" x1="115.5" y1="35.6404" x2="115.5" y2="0.208833" gradientUnits="userSpaceOnUse">
<stop stop-color="#04B6F0"/>
<stop offset="1" stop-color="#3ECAF0"/>
</linearGradient>
<clipPath id="clip0_152_298">
<rect width="231" height="45" fill="white"/>
</clipPath>
</defs>
</svg>
