<svg width="198" height="70" viewBox="0 0 198 70" fill="none" xmlns="http://www.w3.org/2000/svg">
<path fill-rule="evenodd" clip-rule="evenodd" d="M172.076 60.5779V69.6321H188.404C191.75 69.6321 197.493 67.1809 197.692 60.3278V56.8261C197.692 50.9734 192.899 47.5218 188.404 47.5218H180.265V43.3199H196.394V34.2157H180.914C176.919 34.2157 171.576 37.5172 171.576 43.6701V46.8215C171.576 52.9744 176.869 56.1258 180.914 56.1258C192.15 56.1758 178.218 56.1258 188.604 56.1258V60.5279M84.5897 58.3769C84.5897 58.3769 93.3283 57.6265 93.3283 46.3213C93.3283 35.0161 82.7421 33.9656 82.7421 33.9656H63.667V69.6321H73.2545V61.0281L81.5437 69.6321H95.7252L84.5897 58.3769ZM80.8945 51.0735H73.2545V42.9197H80.9445C80.9445 42.9197 83.0917 43.7201 83.0917 46.9716C83.0917 50.2231 80.8945 51.0735 80.8945 51.0735ZM116.997 34.2157H107.26C100.319 34.2157 97.9723 40.5186 97.9723 43.52V69.6321H107.71V63.3792H116.848V69.6321H126.285V43.52C126.285 35.9165 119.394 34.2157 116.997 34.2157ZM116.848 53.2745H107.66V44.6205C107.66 44.6205 107.66 42.6696 110.706 42.6696H114.051C116.748 42.6696 116.798 44.6205 116.798 44.6205V53.2745H116.848ZM130.73 34.2157H140.866V69.6321H130.73V34.2157ZM145.011 34.2157V69.6321H168.73V60.4778H155.098V34.2157H145.011Z" fill="#CC0000"/>
<path fill-rule="evenodd" clip-rule="evenodd" d="M3.49561 69.6321H42.9442C42.9442 69.6321 35.404 35.1662 60.3715 21.2097C65.8144 18.5585 83.1418 8.65394 111.505 29.6637C112.404 28.9133 113.253 28.313 113.253 28.313C113.253 28.313 87.2864 2.35103 58.3741 5.25237C43.843 6.55297 25.9663 19.8091 15.48 37.3172C4.99365 54.8253 3.49561 69.6321 3.49561 69.6321Z" fill="#CC0000"/>
<path fill-rule="evenodd" clip-rule="evenodd" d="M3.49561 69.6321H42.9442C42.9442 69.6321 35.404 35.1662 60.3715 21.2097C65.8144 18.5585 83.1418 8.65394 111.505 29.6637C112.404 28.9133 113.253 28.313 113.253 28.313C113.253 28.313 87.2864 2.35103 58.3741 5.25237C43.843 6.55297 25.9663 19.8091 15.48 37.3172C4.99365 54.8253 3.49561 69.6321 3.49561 69.6321Z" fill="#CC0000"/>
<path fill-rule="evenodd" clip-rule="evenodd" d="M3.49561 69.6323H42.9442C42.9442 69.6323 35.404 35.1663 60.3715 21.2099C65.8144 18.5586 83.1418 8.65405 111.505 29.6638C112.404 28.9134 113.253 28.3131 113.253 28.3131C113.253 28.3131 87.2864 2.35114 58.3741 5.25248C43.7931 6.55308 25.9164 19.8092 15.43 37.3173C4.94372 54.8254 3.49561 69.6323 3.49561 69.6323ZM85.6885 8.05378L85.8882 4.70223C85.4388 4.45211 84.1904 3.85183 81.0445 2.95142L80.8448 6.25294C82.4926 6.8032 84.0906 7.40348 85.6885 8.05378Z" fill="#CC0000"/>
<path fill-rule="evenodd" clip-rule="evenodd" d="M80.9445 18.6586L80.7447 21.8101C82.3926 21.8601 84.0405 22.0602 85.6883 22.4104L85.888 19.3089C84.1903 18.9588 82.5424 18.7587 80.9445 18.6586ZM62.4686 3.05141H62.9679L61.9692 0C60.4212 0 58.8233 0.100046 57.1755 0.300139L58.1242 3.2515C59.5723 3.10143 61.0205 3.05141 62.4686 3.05141ZM64.8654 21.4599L66.0139 24.9115C67.4621 24.2112 68.9102 23.6109 70.3583 23.1607L69.2597 19.8592C67.5619 20.3594 66.1138 20.9097 64.8654 21.4599ZM42.195 8.30384L39.9479 4.85224C38.6996 5.50254 37.4012 6.20287 36.053 7.00324L38.35 10.5049C39.6483 9.70449 40.8967 8.95414 42.195 8.30384ZM52.4317 30.8142L54.8285 34.4159C55.6774 33.1653 56.6761 32.0148 57.7747 30.8643L55.5276 27.4627C54.3791 28.5132 53.3305 29.6637 52.4317 30.8142ZM45.1911 46.9217L49.2358 50.1232C49.4356 48.1723 49.7851 46.2214 50.2844 44.2705L46.6891 41.4192C46.04 43.27 45.5906 45.1209 45.1911 46.9217ZM23.3196 23.1607L19.7742 20.0593C18.4759 21.3099 17.2275 22.5604 16.079 23.811L19.924 27.1125C20.9727 25.7619 22.1212 24.4113 23.3196 23.1607ZM8.23926 45.521L2.49675 43.4201C1.54798 45.5711 0.499349 48.0722 0 49.4229L5.74251 51.5238C6.39167 49.823 7.4403 47.3719 8.23926 45.521ZM44.4421 59.6276C44.5419 62.2788 44.7916 64.4298 45.0413 65.9305L51.0335 68.0815C50.5841 66.1306 50.1346 63.9296 49.835 61.5785L44.4421 59.6276Z" fill="#CC0000"/>
</svg>
