<svg width="228" height="73" viewBox="0 0 228 73" fill="none" xmlns="http://www.w3.org/2000/svg">
<path d="M124.786 22.6749C124.786 24.4788 123.304 26.0883 121.371 26.0883C119.889 26.0883 118.601 26.475 117.505 27.3121C116.282 28.0855 115.315 29.1797 114.542 30.4031C112.996 32.4641 112.224 34.9107 111.901 35.8117V48.047C111.901 49.9146 110.291 51.4604 108.358 51.4604C107.455 51.4539 106.59 51.0921 105.951 50.4534C105.312 49.8147 104.95 48.9503 104.943 48.047V22.6759C104.943 20.8082 106.489 19.3273 108.358 19.3273C110.291 19.3273 111.901 20.8087 111.901 22.6759V23.1268C112.288 22.6759 112.798 22.1611 113.254 21.8387C115.38 20.4226 118.15 19.2625 121.371 19.3273C123.304 19.3273 124.786 20.8087 124.786 22.6759V22.6749ZM122.894 35.3607C122.959 26.603 129.788 19.262 138.613 19.262C146.988 19.262 153.618 25.5082 154.139 34.2011V34.5231C154.139 34.6526 154.139 34.9735 154.074 35.1026C153.875 36.6483 152.528 37.6788 150.724 37.6788H130.238C130.56 39.1603 131.269 40.8341 132.429 41.9293C133.782 43.4751 136.358 44.6331 138.613 44.8265C140.932 45.0193 143.698 44.4403 145.313 43.2169C146.665 41.7998 149.307 41.9936 150.144 43.0176C150.982 43.9146 151.626 45.852 150.144 47.2034C146.987 50.1005 143.187 51.4539 138.612 51.4539C129.787 51.3906 122.959 44.1139 122.894 35.3562L122.894 35.3607ZM129.917 32.2054H148.147C147.503 29.6292 144.217 25.8307 138.613 25.3797C133.137 25.6368 130.437 29.5654 129.916 32.2054H129.917ZM186.962 47.9817C186.962 49.8494 185.415 51.4599 183.482 51.4599C181.737 51.4599 180.39 50.2365 180.067 48.6908C177.625 50.3651 174.527 51.4599 171.306 51.4599C162.609 51.4599 155.651 44.1189 155.651 35.4255C155.651 26.603 162.609 19.262 171.306 19.262C174.463 19.262 177.555 20.292 179.938 21.9663V9.86052C179.938 7.99288 181.485 6.38237 183.481 6.38237C185.414 6.38237 186.961 7.99188 186.961 9.86052V47.9822L186.962 47.9817ZM171.307 26.2806C168.988 26.2806 166.862 27.2463 165.252 28.9206C163.642 30.5301 162.675 32.8483 162.675 35.4245C162.675 37.8662 163.641 40.1893 165.252 41.7993C166.863 43.4736 168.988 44.4403 171.307 44.4403C173.69 44.4403 175.753 43.4746 177.363 41.7993C178.973 40.1898 179.94 37.8711 179.94 35.4245C179.94 32.8483 178.974 30.5311 177.363 28.9206C175.753 27.2463 173.691 26.2806 171.307 26.2806ZM199.224 11.2119C199.224 13.1438 197.743 14.7534 195.745 14.7534C193.812 14.7534 192.266 13.1438 192.266 11.2119V9.85952C192.264 9.40234 192.353 8.9493 192.527 8.52654C192.701 8.10378 192.957 7.71967 193.281 7.39636C193.604 7.07306 193.988 6.81696 194.411 6.64284C194.834 6.46872 195.287 6.38002 195.745 6.38186C197.742 6.38186 199.224 7.9276 199.224 9.86002V11.2119ZM199.224 22.8722V47.9867C199.224 49.9186 197.743 51.4649 195.745 51.4649C195.287 51.4667 194.834 51.378 194.411 51.2039C193.988 51.0298 193.604 50.7737 193.281 50.4504C192.957 50.1271 192.701 49.7429 192.527 49.3202C192.353 48.8974 192.264 48.4444 192.266 47.9872V22.8727C192.266 20.8122 193.811 19.3308 195.745 19.3308C197.743 19.3308 199.224 20.8122 199.224 22.8727V22.8722ZM203.648 42.2512C204.807 40.7065 207.063 40.5131 208.479 41.7365C210.154 43.1537 213.054 44.6336 215.566 44.5698C217.311 44.5698 218.916 43.9908 219.947 43.3465C220.844 42.5741 221.106 41.9303 221.106 41.4146C221.106 41.0927 221.041 40.9641 220.913 40.7703C220.848 40.5774 220.591 40.3198 220.075 39.9979C219.178 39.3536 217.241 38.645 214.922 38.194H214.857C212.859 37.8079 210.927 37.2971 209.252 36.5197C207.507 35.6826 205.962 34.524 204.807 32.7855C204.099 31.6264 203.712 30.2092 203.712 28.7293C203.712 25.7669 205.387 23.2554 207.513 21.6454C209.767 20.1007 212.473 19.2635 215.437 19.2635C219.882 19.2635 223.038 21.3888 225.1 22.8049C226.647 23.8354 227.097 25.9607 226.131 27.5697C225.1 29.1155 222.974 29.5664 221.364 28.4667C219.303 27.1148 217.498 26.0838 215.432 26.0838C213.821 26.0838 212.404 26.599 211.566 27.2428C210.729 27.8229 210.536 28.4024 210.536 28.7243C210.536 28.9814 210.536 29.0462 210.664 29.239C210.729 29.3676 210.922 29.6252 211.373 29.8828C212.211 30.4624 213.886 31.0419 216.076 31.4286L216.141 31.4934H216.206C218.332 31.879 220.329 32.4591 222.197 33.3605C223.942 34.1329 225.677 35.3567 226.771 37.1596C227.544 38.4472 227.995 39.9286 227.995 41.4101C227.995 44.5653 226.25 47.2054 223.936 48.8846C221.617 50.4942 218.718 51.4609 215.561 51.4609C210.536 51.3961 206.671 49.079 204.094 47.018C202.677 45.8589 202.484 43.6694 203.643 42.2522L203.648 42.2512Z" fill="#D9D9D9"/>
<path d="M81.4815 56.1944C76.956 58.5523 53.5118 68.1875 48.5206 70.7882C43.5295 73.3888 40.7567 73.3644 36.8139 71.4808C32.8712 69.5972 7.92241 59.5235 3.42828 57.3763C1.18196 56.303 0.000976562 55.3981 0.000976562 54.542V45.9736C0.000976562 45.9736 32.4803 38.9057 37.7247 37.0251C42.9691 35.1445 44.7872 35.0817 49.2494 36.7112C53.7117 38.3406 80.3938 43.1572 84.8036 44.7717L84.8017 53.218C84.8021 54.0651 83.7847 54.9944 81.4815 56.1944Z" fill="#A41E11"/>
<path d="M81.4816 47.624C76.9561 49.981 53.5119 59.6172 48.5207 62.2178C43.5296 64.8185 40.7568 64.7941 36.814 62.9105C32.8713 61.0269 7.9225 50.9522 3.42837 48.806C-1.06576 46.6598 -1.15998 45.1808 3.25488 43.4532L37.7248 30.1132C42.9682 28.2335 44.7873 28.1698 49.2495 29.7992C53.7118 31.4287 77.0169 40.7051 81.4263 42.3196C85.8357 43.9341 86.0067 45.2661 81.4761 47.624H81.4816Z" fill="#D82C20"/>
<path d="M81.4815 42.2225C76.956 44.5805 53.5118 54.2157 48.5206 56.8178C43.5295 59.4199 40.7567 59.393 36.8139 57.509C32.8712 55.6249 7.92241 45.5517 3.42828 43.4045C1.18196 42.3311 0.000976562 41.4262 0.000976562 40.5711V32.0018C0.000976562 32.0018 32.4803 24.9334 37.7247 23.0533C42.9691 21.1732 44.7872 21.1099 49.2494 22.7393C53.7117 24.3688 80.3938 29.1844 84.8036 30.7994L84.8017 39.2471C84.8021 40.0942 83.7847 41.0231 81.4815 42.223V42.2225Z" fill="#A41E11"/>
<path d="M81.4816 33.652C76.9561 36.01 53.5119 45.6452 48.5207 48.2473C43.5296 50.8495 40.7568 50.8226 36.814 48.9385C32.8713 47.0544 7.9225 36.9807 3.42837 34.834C-1.06576 32.6873 -1.15998 31.2093 3.25488 29.4807L37.7248 16.1416C42.9682 14.2615 44.7873 14.1983 49.2495 15.8277C53.7118 17.4572 77.0169 26.7331 81.4263 28.3481C85.8357 29.9631 86.0067 31.2945 81.4761 33.6525L81.4816 33.652Z" fill="#D82C20"/>
<path d="M81.4815 27.7337C76.956 30.0917 53.5118 39.7279 48.5206 42.334C43.5295 44.9401 40.7567 44.9092 36.8139 43.0251C32.8712 41.1411 7.92241 31.0674 3.42828 28.9207C1.18196 27.8473 0.000976562 26.9424 0.000976562 26.0873V17.518C0.000976562 17.518 32.4803 10.4451 37.7247 8.56498C42.9691 6.68488 44.7872 6.6216 49.2494 8.25106C53.7117 9.88051 80.3938 14.6961 84.8036 16.3111L84.8017 24.7584C84.8021 25.6045 83.7847 26.5338 81.4815 27.7332V27.7337Z" fill="#A41E11"/>
<path d="M81.4816 19.1629C76.9561 21.5209 53.5119 31.1571 48.5207 33.7583C43.5296 36.3594 40.7568 36.3335 36.814 34.4499C32.8713 32.5663 7.9225 22.4921 3.42837 20.3454C-1.06576 18.1987 -1.15998 16.7203 3.25488 14.9921L37.7248 1.65257C42.9682 -0.228032 44.7873 -0.29082 49.2495 1.33863C53.7118 2.96808 77.0169 12.244 81.4263 13.859C85.8357 15.474 86.0067 16.805 81.4761 19.1624L81.4816 19.1629Z" fill="#D82C20"/>
<path d="M46.1662 11.6714L44.5201 15.6299L41.8605 11.215L33.3758 10.4526L39.707 8.16884L37.8126 4.66577L43.7385 6.98388L49.3303 5.1551L47.8168 8.77677L53.5149 10.9085L46.1662 11.6714ZM30.3647 24.42L50.0163 21.4053L44.0824 30.1056L30.3647 24.42Z" fill="#ECF0F1"/>
<path d="M25.0684 21.2499C30.8692 21.2499 35.5717 19.4278 35.5717 17.1802C35.5717 14.9326 30.8692 13.1106 25.0684 13.1106C19.2677 13.1106 14.5652 14.9326 14.5652 17.1802C14.5652 19.4278 19.2677 21.2499 25.0684 21.2499Z" fill="#ECF0F1"/>
<path d="M73.8274 16.5883L62.205 21.1747L62.1985 11.991L73.8274 16.5883Z" fill="#7A0C00"/>
<path d="M62.199 11.9905L62.2055 21.1742L60.9467 21.6705L49.3313 17.0777L62.199 11.9905Z" fill="#AD2115"/>
</svg>
