<svg width="21" height="21" viewBox="0 0 21 21" fill="none" xmlns="http://www.w3.org/2000/svg">
<circle cx="10.5" cy="10.5" r="10" stroke="#436689"/>
<path d="M10.0621 12.464C10.0621 12.048 10.1314 11.6853 10.2701 11.376C10.4087 11.0667 10.5794 10.7893 10.7821 10.544C10.9954 10.2987 11.2247 10.0747 11.4701 9.872C11.7154 9.65867 11.9447 9.45067 12.1581 9.248C12.3714 9.03467 12.5421 8.81067 12.6701 8.576C12.8087 8.34133 12.8781 8.06933 12.8781 7.76C12.8781 7.248 12.6754 6.832 12.2701 6.512C11.8647 6.192 11.3047 6.032 10.5901 6.032C9.95006 6.032 9.3954 6.13867 8.92606 6.352C8.45673 6.56533 8.05673 6.88 7.72606 7.296L6.55806 6.464C7.00606 5.89867 7.57673 5.46133 8.27006 5.152C8.9634 4.832 9.77406 4.672 10.7021 4.672C11.4701 4.672 12.1367 4.78933 12.7021 5.024C13.2674 5.248 13.7047 5.57333 14.0141 6C14.3341 6.416 14.4941 6.92267 14.4941 7.52C14.4941 7.968 14.4247 8.352 14.2861 8.672C14.1474 8.992 13.9714 9.27467 13.7581 9.52C13.5447 9.76533 13.3154 9.99467 13.0701 10.208C12.8354 10.4213 12.6114 10.6347 12.3981 10.848C12.1847 11.0613 12.0087 11.296 11.8701 11.552C11.7314 11.808 11.6621 12.112 11.6621 12.464H10.0621ZM10.8781 16.096C10.5794 16.096 10.3287 15.9947 10.1261 15.792C9.93406 15.5893 9.83806 15.3493 9.83806 15.072C9.83806 14.7733 9.93406 14.528 10.1261 14.336C10.3287 14.144 10.5794 14.048 10.8781 14.048C11.1767 14.048 11.4221 14.144 11.6141 14.336C11.8061 14.528 11.9021 14.7733 11.9021 15.072C11.9021 15.3493 11.8061 15.5893 11.6141 15.792C11.4221 15.9947 11.1767 16.096 10.8781 16.096Z" fill="#436689"/>
</svg>
