<svg width="80" height="80" viewBox="0 0 80 80" fill="none" xmlns="http://www.w3.org/2000/svg">
<mask id="mask0_27_322" style="mask-type:luminance" maskUnits="userSpaceOnUse" x="0" y="0" width="80" height="80">
<path d="M80 0H0V80H80V0Z" fill="white"/>
</mask>
<g mask="url(#mask0_27_322)">
<path d="M40.6748 65.7231H35.8895V64.4923C35.8895 62.5231 35.5214 60.6154 34.8466 58.7692C33.3742 54.6462 30.5522 51.3846 27.4846 50.2769L26.3803 49.8462L26.7485 48.7385C28.0368 44.6769 28.9571 39.9385 29.4478 35.0154C29.6318 32.9846 29.7546 31.0154 29.7546 28.9846H32.2086C32.2086 31.0154 32.0858 33.1077 31.9018 35.2C31.4723 39.8769 30.6135 44.3692 29.4478 48.3692C32.7608 50.0308 35.6442 53.4769 37.2392 57.9077C37.8528 59.6308 38.2208 61.4154 38.4049 63.2H39.6318V64.3077H40.8589V65.7231H40.6748Z" fill="url(#paint0_linear_27_322)"/>
<path d="M44.1103 65.7231H39.3251V64.3692H40.552V63.2615H41.7791C41.9017 61.4769 42.2698 59.6923 42.9446 57.9692C44.5398 53.5385 47.3618 50.0923 50.7362 48.4308C49.5705 44.4923 48.7115 39.9385 48.2822 35.2615C48.098 33.1692 47.9754 31.0769 47.9754 29.0461H50.4294C50.4294 31.0154 50.552 33.0461 50.7362 35.0769C51.2269 40 52.1471 44.7385 53.4355 48.8L53.8035 49.9077L52.6992 50.3385C49.6318 51.4461 46.8097 54.7077 45.3374 58.8308C44.6625 60.6769 44.2943 62.5846 44.2943 64.5538L44.1103 65.7231Z" fill="url(#paint1_linear_27_322)"/>
<path d="M51.2269 24.0615H28.7729V5.84613H31.2269V21.6H48.7729V5.84613H51.2269V24.0615Z" fill="url(#paint2_linear_27_322)"/>
<path d="M52.0246 29.8462H27.9755V21.1693H52.086V29.8462H52.0246ZM30.4295 27.3846H49.632V23.6308H30.4295V27.3846Z" fill="url(#paint3_linear_27_322)"/>
<path d="M50.8591 21.1693H29.2026V23.6308H50.8591V21.1693Z" fill="url(#paint4_linear_27_322)"/>
<path d="M36.3191 76.6769C17.7914 74.8307 3.80371 59.3846 3.80371 40.8615H6.2577C6.2577 58.1538 19.2638 72.4923 36.5645 74.2769L36.3191 76.6769Z" fill="url(#paint5_linear_27_322)"/>
<path d="M43.8038 76.6769L43.5585 74.2154C60.7977 72.4307 73.7425 58.0923 73.7425 40.8615H76.1965C76.1965 59.3231 62.2702 74.7692 43.8038 76.6769Z" fill="url(#paint6_linear_27_322)"/>
<path d="M72.27 74.1539H43.2515V76.6154H72.27V74.1539Z" fill="url(#paint7_linear_27_322)"/>
<path d="M36.9938 74.1539H7.97551V76.6154H36.9938V74.1539Z" fill="url(#paint8_linear_27_322)"/>
<path d="M9.20246 42.3384H0V33.1077H9.20246V42.3384ZM2.45398 39.8769H6.74846V35.6307H2.45398V39.8769Z" fill="url(#paint9_linear_27_322)"/>
<path d="M79.9998 42.3384H70.7974V33.1077H79.9998V42.3384ZM73.2514 39.8769H77.5458V35.6307H73.2514V39.8769Z" fill="url(#paint10_linear_27_322)"/>
<path d="M44.6014 80H35.3989V70.8307H44.6014V80ZM37.8529 77.5384H42.1474V73.2923H37.8529V77.5384Z" fill="url(#paint11_linear_27_322)"/>
<path d="M9.57054 80H0.368088V70.8307H9.57054V80ZM2.76072 77.5384H7.0552V73.2923H2.76072V77.5384Z" fill="url(#paint12_linear_27_322)"/>
<path d="M79.6934 80H70.4909V70.8307H79.6934V80ZM72.8835 77.5384H77.178V73.2923H72.8835V77.5384Z" fill="url(#paint13_linear_27_322)"/>
<path d="M41.2269 44.6769H38.7729V64.5539H41.2269V44.6769Z" fill="url(#paint14_linear_27_322)"/>
<path d="M40 46.1539C37.9142 46.1539 36.1963 44.4923 36.1963 42.4C36.1963 40.3077 37.9142 38.6462 40 38.6462C42.0858 38.6462 43.8037 40.3077 43.8037 42.4C43.8037 44.4923 42.0858 46.1539 40 46.1539ZM40 41.1077C39.2638 41.1077 38.6503 41.7231 38.6503 42.4C38.6503 43.1385 39.2638 43.6923 40 43.6923C40.7362 43.6923 41.3497 43.0769 41.3497 42.4C41.3497 41.6616 40.7362 41.1077 40 41.1077Z" fill="url(#paint15_linear_27_322)"/>
<path d="M46.1965 5.84613H43.7425V18.0923H46.1965V5.84613Z" fill="url(#paint16_linear_27_322)"/>
<path d="M46.1965 0H43.7425V3.13846H46.1965V0Z" fill="url(#paint17_linear_27_322)"/>
</g>
<defs>
<linearGradient id="paint0_linear_27_322" x1="33.6196" y1="28.9846" x2="33.6196" y2="65.7231" gradientUnits="userSpaceOnUse">
<stop stop-color="#4A717A"/>
<stop offset="1" stop-color="#ECF0F1" stop-opacity="0.3"/>
</linearGradient>
<linearGradient id="paint1_linear_27_322" x1="46.5643" y1="29.0461" x2="46.5643" y2="65.7231" gradientUnits="userSpaceOnUse">
<stop stop-color="#4A717A"/>
<stop offset="1" stop-color="#ECF0F1" stop-opacity="0.3"/>
</linearGradient>
<linearGradient id="paint2_linear_27_322" x1="39.9999" y1="5.84613" x2="39.9999" y2="24.0615" gradientUnits="userSpaceOnUse">
<stop stop-color="#4A717A"/>
<stop offset="1" stop-color="#ECF0F1" stop-opacity="0.3"/>
</linearGradient>
<linearGradient id="paint3_linear_27_322" x1="40.0308" y1="21.1693" x2="40.0308" y2="29.8462" gradientUnits="userSpaceOnUse">
<stop stop-color="#4A717A"/>
<stop offset="1" stop-color="#ECF0F1" stop-opacity="0.3"/>
</linearGradient>
<linearGradient id="paint4_linear_27_322" x1="40.0309" y1="21.1693" x2="40.0309" y2="23.6308" gradientUnits="userSpaceOnUse">
<stop stop-color="#4A717A"/>
<stop offset="1" stop-color="#ECF0F1" stop-opacity="0.3"/>
</linearGradient>
<linearGradient id="paint5_linear_27_322" x1="20.1841" y1="40.8615" x2="20.1841" y2="76.6769" gradientUnits="userSpaceOnUse">
<stop stop-color="#4A717A"/>
<stop offset="1" stop-color="#ECF0F1" stop-opacity="0.3"/>
</linearGradient>
<linearGradient id="paint6_linear_27_322" x1="59.8775" y1="40.8615" x2="59.8775" y2="76.6769" gradientUnits="userSpaceOnUse">
<stop stop-color="#4A717A"/>
<stop offset="1" stop-color="#ECF0F1" stop-opacity="0.3"/>
</linearGradient>
<linearGradient id="paint7_linear_27_322" x1="57.7608" y1="74.1539" x2="57.7608" y2="76.6154" gradientUnits="userSpaceOnUse">
<stop stop-color="#4A717A"/>
<stop offset="1" stop-color="#ECF0F1" stop-opacity="0.3"/>
</linearGradient>
<linearGradient id="paint8_linear_27_322" x1="22.4847" y1="74.1539" x2="22.4847" y2="76.6154" gradientUnits="userSpaceOnUse">
<stop stop-color="#4A717A"/>
<stop offset="1" stop-color="#ECF0F1" stop-opacity="0.3"/>
</linearGradient>
<linearGradient id="paint9_linear_27_322" x1="4.60123" y1="33.1077" x2="4.60123" y2="42.3384" gradientUnits="userSpaceOnUse">
<stop stop-color="#4A717A"/>
<stop offset="1" stop-color="#ECF0F1" stop-opacity="0.3"/>
</linearGradient>
<linearGradient id="paint10_linear_27_322" x1="75.3986" y1="33.1077" x2="75.3986" y2="42.3384" gradientUnits="userSpaceOnUse">
<stop stop-color="#4A717A"/>
<stop offset="1" stop-color="#ECF0F1" stop-opacity="0.3"/>
</linearGradient>
<linearGradient id="paint11_linear_27_322" x1="40.0002" y1="70.8307" x2="40.0002" y2="80" gradientUnits="userSpaceOnUse">
<stop stop-color="#4A717A"/>
<stop offset="1" stop-color="#ECF0F1" stop-opacity="0.3"/>
</linearGradient>
<linearGradient id="paint12_linear_27_322" x1="4.96931" y1="70.8307" x2="4.96931" y2="80" gradientUnits="userSpaceOnUse">
<stop stop-color="#4A717A"/>
<stop offset="1" stop-color="#ECF0F1" stop-opacity="0.3"/>
</linearGradient>
<linearGradient id="paint13_linear_27_322" x1="75.0922" y1="70.8307" x2="75.0922" y2="80" gradientUnits="userSpaceOnUse">
<stop stop-color="#4A717A"/>
<stop offset="1" stop-color="#ECF0F1" stop-opacity="0.3"/>
</linearGradient>
<linearGradient id="paint14_linear_27_322" x1="39.9999" y1="44.6769" x2="39.9999" y2="64.5539" gradientUnits="userSpaceOnUse">
<stop stop-color="#4A717A"/>
<stop offset="1" stop-color="#ECF0F1" stop-opacity="0.3"/>
</linearGradient>
<linearGradient id="paint15_linear_27_322" x1="40" y1="38.6462" x2="40" y2="46.1539" gradientUnits="userSpaceOnUse">
<stop stop-color="#4A717A"/>
<stop offset="1" stop-color="#ECF0F1" stop-opacity="0.3"/>
</linearGradient>
<linearGradient id="paint16_linear_27_322" x1="44.9695" y1="5.84613" x2="44.9695" y2="18.0923" gradientUnits="userSpaceOnUse">
<stop stop-color="#4A717A"/>
<stop offset="1" stop-color="#ECF0F1" stop-opacity="0.3"/>
</linearGradient>
<linearGradient id="paint17_linear_27_322" x1="44.9695" y1="0" x2="44.9695" y2="3.13846" gradientUnits="userSpaceOnUse">
<stop stop-color="#4A717A"/>
<stop offset="1" stop-color="#ECF0F1" stop-opacity="0.3"/>
</linearGradient>
</defs>
</svg>
