<svg width="40" height="24" viewBox="0 0 40 24" fill="none" xmlns="http://www.w3.org/2000/svg">
<path fill-rule="evenodd" clip-rule="evenodd" d="M40 2C40 1.46957 39.7893 0.96086 39.4142 0.585787C39.0391 0.210714 38.5304 0 38 0H2C1.46957 0 0.960861 0.210714 0.585789 0.585787C0.210716 0.96086 3.8147e-06 1.46957 3.8147e-06 2C3.8147e-06 2.53043 0.210716 3.03914 0.585789 3.41421C0.960861 3.78929 1.46957 4 2 4H38C38.5304 4 39.0391 3.78929 39.4142 3.41421C39.7893 3.03914 40 2.53043 40 2ZM40 12C40 11.4696 39.7893 10.9609 39.4142 10.5858C39.0391 10.2107 38.5304 10 38 10H2C1.46957 10 0.960861 10.2107 0.585789 10.5858C0.210716 10.9609 3.8147e-06 11.4696 3.8147e-06 12C3.8147e-06 12.5304 0.210716 13.0391 0.585789 13.4142C0.960861 13.7893 1.46957 14 2 14H38C38.5304 14 39.0391 13.7893 39.4142 13.4142C39.7893 13.0391 40 12.5304 40 12ZM38 20C38.5304 20 39.0391 20.2107 39.4142 20.5858C39.7893 20.9609 40 21.4696 40 22C40 22.5304 39.7893 23.0391 39.4142 23.4142C39.0391 23.7893 38.5304 24 38 24H2C1.46957 24 0.960861 23.7893 0.585789 23.4142C0.210716 23.0391 3.8147e-06 22.5304 3.8147e-06 22C3.8147e-06 21.4696 0.210716 20.9609 0.585789 20.5858C0.960861 20.2107 1.46957 20 2 20H38Z" fill="#ECF0F1"/>
</svg>
