<svg width="25" height="19" viewBox="0 0 25 19" fill="none" xmlns="http://www.w3.org/2000/svg">
<path d="M1.43435 0H23.5657C23.944 0.00374436 24.3056 0.156383 24.5722 0.424852C24.8387 0.69332 24.9888 1.056 24.9898 1.43433V16.6443C24.992 16.9345 24.9054 17.2185 24.7416 17.4581C24.7122 17.5349 24.6664 17.6043 24.6074 17.6615C24.5677 17.6995 24.5224 17.731 24.4731 17.7551C24.2164 17.9717 23.8914 18.0906 23.5555 18.0908H1.43435C1.05779 18.0871 0.6977 17.9359 0.431419 17.6696C0.165139 17.4033 0.0139031 17.0432 0.0101929 16.6667V1.43433C0.0112446 1.056 0.161306 0.69332 0.42787 0.424852C0.694435 0.156383 1.05604 0.00374436 1.43435 0ZM1.37331 16.04L8.85622 8.26416L1.37331 1.94092V16.04ZM9.98334 9.23462L1.98773 16.9779H22.9431L15.3036 9.23462L13.0656 11.1084C12.967 11.1903 12.8428 11.2351 12.7147 11.2351C12.5865 11.2351 12.4623 11.1903 12.3637 11.1084L9.98334 9.23462ZM16.4124 8.24992L23.6267 16.1031V1.87174L16.4124 8.24992ZM2.07725 1.10067L12.6933 9.70459L22.8414 1.10067H2.07725Z" fill="#3498DB"/>
</svg>
