<svg width="25" height="25" viewBox="0 0 25 25" fill="none" xmlns="http://www.w3.org/2000/svg">
<mask id="mask0_26_140" style="mask-type:alpha" maskUnits="userSpaceOnUse" x="6" y="2" width="15" height="21">
<path d="M13.2917 2C9.22917 2 6 5.22917 6 9.29167C6 15.5417 13.2917 22.8333 13.2917 22.8333C13.2917 22.8333 20.5833 15.4375 20.5833 9.29167C20.5833 5.22917 17.3542 2 13.2917 2ZM13.2917 11.8958C11.8333 11.8958 10.6875 10.75 10.6875 9.29167C10.6875 7.83333 11.8333 6.6875 13.2917 6.6875C14.75 6.6875 15.8958 7.83333 15.8958 9.29167C15.8958 10.75 14.75 11.8958 13.2917 11.8958Z" fill="black"/>
</mask>
<g mask="url(#mask0_26_140)">
<circle cx="13.7917" cy="14.9166" r="19" fill="#3498DB"/>
</g>
</svg>
