<svg width="146" height="146" viewBox="0 0 146 146" fill="none" xmlns="http://www.w3.org/2000/svg">
<g opacity="0.2">
<path d="M125.076 112.174L101.913 89.0098C106.699 81.7965 109.5 73.1597 109.5 63.875C109.5 38.7174 89.0326 18.25 63.875 18.25C38.7174 18.25 18.25 38.7174 18.25 63.875C18.25 89.0326 38.7174 109.5 63.875 109.5C73.1597 109.5 81.7965 106.699 89.0098 101.913L112.174 125.076C115.732 128.64 121.518 128.64 125.076 125.076C128.64 121.513 128.64 115.737 125.076 112.174ZM31.9375 63.875C31.9375 46.2638 46.2638 31.9375 63.875 31.9375C81.4862 31.9375 95.8125 46.2638 95.8125 63.875C95.8125 81.4862 81.4862 95.8125 63.875 95.8125C46.2638 95.8125 31.9375 81.4862 31.9375 63.875Z" fill="#436689"/>
</g>
</svg>
