<svg width="20" height="20" viewBox="0 0 20 20" fill="none" xmlns="http://www.w3.org/2000/svg">
<path d="M19.5514 15.8057L16.4628 12.7167C15.8477 12.1041 14.8288 12.1228 14.1922 12.7595L12.6362 14.3154C12.538 14.261 12.4362 14.2044 12.3292 14.1444C11.3466 13.6 10.0017 12.8537 8.58632 11.4374C7.16701 10.0182 6.41979 8.67105 5.87387 7.68779C5.81592 7.58354 5.76083 7.48324 5.70644 7.38788L6.7508 6.34489L7.26415 5.83086C7.90189 5.19312 7.91956 4.17452 7.30551 3.56018L4.21684 0.470822C3.6032 -0.142825 2.58391 -0.124167 1.94617 0.513568L1.07565 1.38902L1.09964 1.41271C0.807825 1.78509 0.563689 2.21472 0.382438 2.67792C0.215008 3.1188 0.110759 3.53965 0.0630774 3.96109C-0.344639 7.34227 1.20034 10.4322 5.3934 14.6257C11.1894 20.4213 15.8604 19.9835 16.0618 19.962C16.501 19.9097 16.9214 19.8048 17.349 19.6387C17.8082 19.4592 18.2375 19.2158 18.6095 18.9247L18.6286 18.9412L19.5104 18.0777C20.1468 17.4401 20.1652 16.4215 19.5514 15.8057ZM18.8243 17.391L18.4357 17.779L18.2809 17.9278C18.0371 18.1634 17.6152 18.4944 16.9991 18.7354C16.6493 18.8701 16.3045 18.9565 15.9536 18.9983C15.9095 19.0026 11.5161 19.3774 6.07871 13.9404C1.45543 9.31727 0.714534 6.6533 1.02511 4.07314C1.06401 3.73117 1.14979 3.38703 1.28692 3.02739C1.52997 2.40772 1.86068 1.98618 2.09455 1.74205L2.63189 1.19938C2.89083 0.939744 3.2947 0.919902 3.53143 1.15663L6.62 4.24521C6.85634 4.48223 6.83768 4.8861 6.57834 5.14652L4.49247 7.23032L4.68498 7.55432C4.79199 7.73488 4.90512 7.93726 5.02596 8.15711C5.59972 9.1919 6.38475 10.6083 7.9008 12.123C9.4129 13.6359 10.8273 14.4202 11.8589 14.9925C12.0818 15.1158 12.2854 15.2293 12.468 15.338L12.7927 15.5305L14.8772 13.4454C15.1372 13.1864 15.5425 13.1673 15.7792 13.4033L18.8664 16.4912C19.1024 16.7278 19.0837 17.1317 18.8243 17.391Z" fill="#3498DB"/>
</svg>
