<svg width="22" height="22" viewBox="0 0 22 22" fill="none" xmlns="http://www.w3.org/2000/svg">
<path d="M11 0.6875C5.30469 0.6875 0.6875 5.30469 0.6875 11C0.6875 16.6953 5.30469 21.3125 11 21.3125C16.6953 21.3125 21.3125 16.6953 21.3125 11C21.3125 5.30469 16.6953 0.6875 11 0.6875ZM11 2.5625C15.6598 2.5625 19.4375 6.34016 19.4375 11C19.4375 15.6598 15.6598 19.4375 11 19.4375C6.34016 19.4375 2.5625 15.6598 2.5625 11C2.5625 6.34016 6.34016 2.5625 11 2.5625ZM15.238 6.93964C14.9999 6.91217 14.7007 6.97744 14.3664 7.09802C13.7556 7.31833 5.94862 10.6334 5.49768 10.8251C5.07065 11.007 4.66594 11.2052 4.66547 11.4916C4.66547 11.6932 4.78499 11.807 5.11499 11.9247C5.45812 12.0475 6.32341 12.3091 6.83435 12.4502C7.32654 12.5857 7.88625 12.4676 8.20032 12.2726C8.53266 12.0659 12.3728 9.49648 12.6479 9.27148C12.9231 9.04648 13.143 9.33532 12.918 9.56079C12.693 9.78626 10.0569 12.343 9.70911 12.6974C9.28723 13.1277 9.58711 13.5735 9.87024 13.7521C10.1932 13.956 12.5184 15.515 12.8686 15.7653C13.2187 16.0156 13.5732 16.1288 13.8986 16.1288C14.2239 16.1288 14.3951 15.7001 14.5568 15.2032C14.7467 14.6215 15.636 8.82128 15.7452 7.67847C15.7785 7.33206 15.6692 7.1018 15.455 6.99915C15.3902 6.96809 15.3173 6.94879 15.238 6.93964Z" fill="#3498DB"/>
</svg>
