<svg width="22" height="22" viewBox="0 0 22 22" fill="none" xmlns="http://www.w3.org/2000/svg">
<path d="M11.0127 0.166687C5.04782 0.166687 0.192067 5.01826 0.189901 10.9831C0.188817 12.8898 0.688217 14.7511 1.63505 16.3913L0.166626 21.8334L5.83508 20.494C7.41567 21.3563 9.19497 21.809 11.0063 21.8101H11.0105C16.9743 21.8101 21.8279 16.9574 21.8312 10.9937C21.8333 8.10226 20.709 5.38373 18.6658 3.3384C16.6226 1.29415 13.9073 0.16777 11.0127 0.166687ZM11.0105 2.33335C13.3245 2.33444 15.4992 3.23663 17.1339 4.8703C18.7687 6.50613 19.6667 8.67972 19.6645 10.9916C19.6623 15.7626 15.7816 19.6434 11.0084 19.6434C9.56434 19.6423 8.1339 19.2797 6.87398 18.5918L6.144 18.194L5.33785 18.3845L3.20504 18.888L3.72555 16.9541L3.96041 16.0866L3.51184 15.308C2.75567 13.9993 2.35548 12.503 2.35657 10.9831C2.35873 6.21426 6.24062 2.33335 11.0105 2.33335ZM7.1829 5.9896C7.00199 5.9896 6.70947 6.05731 6.46139 6.32815C6.2133 6.5979 5.51347 7.25123 5.51347 8.58156C5.51347 9.9119 6.48254 11.1978 6.61796 11.3788C6.75229 11.5586 8.48852 14.3749 11.2369 15.4582C13.5206 16.3584 13.9844 16.1808 14.4806 16.1353C14.9768 16.0909 16.0813 15.4825 16.3066 14.8509C16.5319 14.2193 16.5325 13.6761 16.4653 13.5645C16.3981 13.4518 16.2177 13.3846 15.9469 13.2492C15.6771 13.1138 14.3478 12.461 14.0997 12.3711C13.8516 12.2812 13.6702 12.2357 13.4904 12.5065C13.3105 12.7774 12.7937 13.3846 12.6355 13.5645C12.4774 13.7454 12.3203 13.7697 12.0494 13.6343C11.7786 13.4978 10.9078 13.2115 9.87431 12.2907C9.07048 11.5746 8.52808 10.6911 8.36991 10.4203C8.21283 10.1505 8.3551 10.0024 8.49052 9.86802C8.61185 9.74669 8.75924 9.55223 8.89465 9.39406C9.02899 9.2359 9.07557 9.12321 9.16549 8.94338C9.2554 8.76355 9.20938 8.60484 9.14221 8.46942C9.07505 8.33401 8.54905 6.99873 8.30855 6.46356C8.10597 6.01398 7.89201 6.00353 7.69918 5.99595C7.5421 5.98945 7.36274 5.9896 7.1829 5.9896Z" fill="#3498DB"/>
</svg>
